<?xml version="1.0" encoding="utf-8"?>
<!-- Generator: Adobe Illustrator 14.0.0, SVG Export Plug-In . SVG Version: 6.00 Build 43363)  -->
<!DOCTYPE svg PUBLIC "-//W3C//DTD SVG 1.1//EN" "http://www.w3.org/Graphics/SVG/1.1/DTD/svg11.dtd">
<svg version="1.1" id="Layer_1" xmlns="http://www.w3.org/2000/svg" xmlns:xlink="http://www.w3.org/1999/xlink" x="0px" y="0px"
	 width="612px" height="792px" viewBox="0 0 612 792" enable-background="new 0 0 612 792" xml:space="preserve">
<g>
	<polygon fill-rule="evenodd" clip-rule="evenodd" fill="#FFFFFF" points="209,300 401.756,300 401.756,492.756 209,492.756 
		209,300 	"/>
	<path fill-rule="evenodd" clip-rule="evenodd" d="M275.903,387.996l28.038,32.709c0,0-63.549-23.362-66.353,3.74
		c0,0-10.281-25.234,4.671-36.449H275.903L275.903,387.996z"/>
	<path fill-rule="evenodd" clip-rule="evenodd" d="M320.763,402.015l-9.342,9.813l23.36,23.833c0,0,17.759,7.475,14.02-13.087
		L320.763,402.015L320.763,402.015z"/>
	<path fill-rule="evenodd" clip-rule="evenodd" d="M324.503,389.864v6.543l29.904,23.361c0,0,20.563-8.409,7.48-21.493
		L324.503,389.864L324.503,389.864z"/>
	<path fill-rule="evenodd" clip-rule="evenodd" d="M326.842,374.444l42.986-1.869c0,0,8.411,14.954-1.867,21.495
		c0,0-42.056-10.28-42.056-9.813S323.569,379.584,326.842,374.444L326.842,374.444z"/>
	<path fill-rule="evenodd" clip-rule="evenodd" d="M275.438,382.855c0,0-8.411-8.878,1.402-15.887
		c20.677,0.747,45.56,6.074,38.787-6.074C333.741,393.379,273.7,358.541,275.438,382.855L275.438,382.855z"/>
	<path fill-rule="evenodd" clip-rule="evenodd" d="M282.448,379.118l4.671,0.466c0,0,5.607,16.824,14.955-0.466l6.073,0.934
		C308.146,380.052,291.795,410.427,282.448,379.118L282.448,379.118z"/>
	<path fill-rule="evenodd" clip-rule="evenodd" d="M312.823,380.052l7.009,1.402c0,0-3.74,16.354-13.088,22.429
		c0,0-6.072,0.002-6.538-5.139C300.206,398.744,311.421,388.93,312.823,380.052L312.823,380.052z"/>
	<polygon fill-rule="evenodd" clip-rule="evenodd" points="249.437,351.642 243.459,334.813 246.588,333.702 248.947,340.341 
		255.078,338.163 252.72,331.524 255.849,330.413 261.826,347.241 258.697,348.353 256.084,340.996 249.953,343.173 
		252.566,350.531 249.437,351.642 	"/>
	<polygon fill-rule="evenodd" clip-rule="evenodd" points="264.722,346.41 260.537,329.048 272.358,326.199 273.063,329.122 
		264.47,331.193 265.395,335.032 273.377,333.107 274.083,336.03 266.1,337.955 267.246,342.709 276.145,340.564 276.849,343.487 
		264.722,346.41 	"/>
	<path fill-rule="evenodd" clip-rule="evenodd" d="M288.747,335.152l3.342,0.652c-0.236,2.021-0.863,3.58-1.88,4.678
		c-1.019,1.098-2.404,1.761-4.159,1.989c-2.17,0.283-4.059-0.29-5.666-1.717c-1.606-1.426-2.591-3.535-2.953-6.324
		c-0.384-2.951,0.021-5.333,1.214-7.149c1.192-1.815,2.933-2.871,5.224-3.169c2-0.26,3.707,0.172,5.123,1.296
		c0.842,0.664,1.542,1.684,2.099,3.059l-3.138,1.268c-0.314-0.895-0.814-1.57-1.5-2.023c-0.686-0.453-1.47-0.623-2.351-0.508
		c-1.218,0.158-2.145,0.758-2.78,1.798c-0.636,1.04-0.817,2.615-0.543,4.723c0.291,2.237,0.87,3.782,1.738,4.635
		c0.868,0.853,1.898,1.202,3.09,1.047c0.879-0.114,1.595-0.517,2.15-1.207C288.31,337.51,288.641,336.494,288.747,335.152
		L288.747,335.152z"/>
	<polygon fill-rule="evenodd" clip-rule="evenodd" points="295.155,341.135 294.885,323.278 298.206,323.228 298.312,330.272 
		304.817,330.174 304.711,323.13 308.031,323.08 308.302,340.937 304.981,340.987 304.863,333.18 298.357,333.278 298.475,341.085 
		295.155,341.135 	"/>
	<path fill-rule="evenodd" clip-rule="evenodd" d="M311.425,332.181c0.188-1.812,0.596-3.306,1.223-4.482
		c0.465-0.867,1.057-1.626,1.775-2.279c0.718-0.652,1.477-1.112,2.279-1.38c1.066-0.363,2.265-0.475,3.594-0.336
		c2.406,0.252,4.247,1.266,5.521,3.042c1.275,1.777,1.762,4.112,1.459,7.007c-0.3,2.87-1.251,5.042-2.854,6.513
		s-3.604,2.082-6.003,1.831c-2.43-0.254-4.276-1.262-5.541-3.026C311.612,337.307,311.129,335.01,311.425,332.181L311.425,332.181
		L311.425,332.181z M314.829,332.414c-0.211,2.01,0.059,3.578,0.807,4.705c0.748,1.127,1.781,1.759,3.1,1.896
		c1.317,0.138,2.453-0.263,3.406-1.204s1.536-2.441,1.752-4.499c0.212-2.034-0.04-3.594-0.758-4.681
		c-0.719-1.087-1.76-1.702-3.122-1.844c-1.364-0.143-2.515,0.25-3.455,1.175C315.619,328.888,315.042,330.372,314.829,332.414
		L314.829,332.414z"/>
	<polygon fill-rule="evenodd" clip-rule="evenodd" points="334.561,344.291 339.138,327.028 350.892,330.145 350.121,333.05 
		341.576,330.785 340.565,334.602 348.502,336.707 347.731,339.612 339.795,337.508 338.541,342.235 347.389,344.582 
		346.618,347.487 334.561,344.291 	"/>
	<polygon fill-rule="evenodd" clip-rule="evenodd" points="348.912,348.227 355.213,331.516 358.246,332.66 360.338,346.157 
		364.533,335.03 367.431,336.123 361.13,352.833 358.003,351.654 355.909,338.444 351.809,349.319 348.912,348.227 	"/>
	<polygon fill-rule="evenodd" clip-rule="evenodd" points="262.695,466.062 268.654,449.227 273.375,450.897 272.098,463.368 
		278.947,452.87 283.671,454.542 277.711,471.378 274.792,470.345 279.463,457.085 271.681,469.243 268.68,468.181 270.326,453.85 
		265.613,467.095 262.695,466.062 	"/>
	<polygon fill-rule="evenodd" clip-rule="evenodd" points="283.087,472.571 285.934,454.94 297.938,456.878 297.459,459.846 
		288.732,458.438 288.103,462.336 296.209,463.645 295.731,466.612 287.624,465.304 286.845,470.132 295.881,471.591 
		295.402,474.56 283.087,472.571 	"/>
	<polygon fill-rule="evenodd" clip-rule="evenodd" points="298.49,474.891 304.161,465.586 299.057,457.033 302.929,457.039 
		306.132,462.354 309.364,457.05 313.236,457.056 308.084,465.593 313.701,474.915 309.724,474.909 306.113,468.857 
		302.468,474.897 298.49,474.891 	"/>
	<polygon fill-rule="evenodd" clip-rule="evenodd" points="316.659,474.444 314.81,456.682 318.112,456.338 319.962,474.101 
		316.659,474.444 	"/>
	<path fill-rule="evenodd" clip-rule="evenodd" d="M333.35,465.041l3.383,0.393c-0.08,2.033-0.585,3.636-1.515,4.809
		c-0.931,1.174-2.262,1.941-3.993,2.304c-2.143,0.448-4.069,0.023-5.781-1.276c-1.712-1.299-2.855-3.325-3.432-6.078
		c-0.609-2.912-0.39-5.319,0.661-7.222c1.049-1.9,2.703-3.088,4.964-3.561c1.974-0.413,3.71-0.114,5.208,0.897
		c0.891,0.598,1.666,1.561,2.328,2.89l-3.032,1.505c-0.382-0.868-0.932-1.503-1.65-1.902c-0.719-0.398-1.513-0.507-2.383-0.325
		c-1.202,0.251-2.08,0.921-2.635,2.007c-0.554,1.085-0.612,2.67-0.178,4.75c0.463,2.209,1.158,3.704,2.09,4.487
		c0.932,0.784,1.985,1.053,3.162,0.807c0.867-0.182,1.551-0.638,2.05-1.369C333.096,467.425,333.347,466.387,333.35,465.041
		L333.35,465.041z"/>
	<path fill-rule="evenodd" clip-rule="evenodd" d="M338.592,461.515c-0.606-1.718-0.881-3.242-0.82-4.573
		c0.049-0.982,0.257-1.923,0.625-2.821c0.368-0.896,0.856-1.639,1.466-2.225c0.808-0.785,1.841-1.401,3.102-1.847
		c2.282-0.806,4.38-0.68,6.293,0.376c1.915,1.058,3.356,2.958,4.326,5.702c0.961,2.721,1.034,5.09,0.218,7.107
		c-0.815,2.018-2.361,3.427-4.635,4.23c-2.304,0.813-4.404,0.697-6.304-0.353C340.963,466.063,339.54,464.197,338.592,461.515
		L338.592,461.515L338.592,461.515z M341.767,460.263c0.674,1.906,1.59,3.207,2.749,3.903s2.364,0.823,3.613,0.382
		c1.25-0.441,2.104-1.291,2.56-2.55c0.457-1.259,0.34-2.864-0.35-4.815c-0.681-1.929-1.579-3.229-2.694-3.902
		c-1.116-0.673-2.32-0.782-3.611-0.325c-1.293,0.457-2.164,1.305-2.615,2.544C340.967,456.739,341.083,458.327,341.767,460.263
		L341.767,460.263z"/>
	<path d="M230.945,329.21c0.179-0.13,61.296-46.019,151.576-0.842l1.415,0.708l0.436,1.521c0.058,0.201,20.369,69.295-9.321,137.02
		l-0.501,1.142l-1.084,0.583c-0.182,0.099-62.684,34.524-137.783-1.577l-0.958-0.461l-0.557-0.913
		c-0.083-0.138-29.574-47.144-4.555-135.259l0.339-1.195L230.945,329.21L230.945,329.21z M377.89,334.091
		c-79.124-38.86-133.813-5.18-141.715,0.196c-21.623,77.404-0.142,120.781,3.577,127.458c65.799,31.119,120.902,6.027,129.231,1.851
		C394.441,404.334,380.562,344.306,377.89,334.091L377.89,334.091z"/>
</g>
</svg>
